Patient4_TMGait_0pt5_01_left_15_EMG.mot
version=1
nRows=20
nColumns=33
inDegrees=no
endheader
time	1LAddLong	2LGlutMax	3LGlutMed	4LIliopsoas	5LSemiMemb	6LBicFemLong	7LRecFem	8LVastMed	9LVastLat	10LGasMed	11LTibAnt	12lTibPost	13LPeroneusLong	14LSol	15LExtDigLong	16LFlexDigLong	17RAddLong	18RGlutMax	19RGlutMed	20RIliopsoas	21RSemiMemb	22RBicFemLong	23RRecFem	24RVastMed	25RVastLat	26RGasMed	27RTibAnt	28RTibPost	29RPeroneusLong	30RSol	31RExtDigLong	32RFlexDigLong
20.05	0.001068	0.13641	-0.11307	0.011902	-0.009918	0.026855	-0.008545	0.021667	0.13016	-0.012512	-0.031738	-0.00412	0.058899	-0.041809	-0.22919	0.002899	0.001373	0.00824	-0.049438	0.037689	-0.092773	0.11719	-0.082245	-0.33737	-0.11841	-0.069885	-0.0354	0.01709	-0.77743	-0.10727	-0.000305	-0.006256
20.051	0.023499	0.17227	-0.10742	-0.002899	-0.010529	0.026093	0.008087	0.025177	0.14023	0.005493	-0.038605	0.00061	0.035706	-0.11047	-0.14832	0.00946	0.013275	0.085449	0.094604	-0.009308	-0.03952	0.01709	-0.02594	-0.12146	-0.061188	-0.093231	-0.068359	-0.022583	-0.050964	-0.09552	-0.000305	-0.011902
20.052	-0.006104	0.13748	-0.12528	0.017395	-0.011597	0.016174	-0.015411	0.025177	0.15305	-0.015564	0.017395	-0.006256	0.039673	-0.10635	-0.055542	0.005188	0.022888	0.027618	0.41092	0.010681	0.041656	-0.11246	-0.073853	0.022888	0.027618	-0.11337	-0.050354	0.004578	0.75821	-0.034637	0.000458	-0.01709
20.053	-0.000153	0.10208	-0.13123	0.011597	-0.007935	-0.003357	-0.013275	0.021057	0.15717	-0.004272	0.10117	0.000763	0.013885	-0.13702	0.047455	0.021667	0.025787	0.050354	0.30426	-0.026855	-0.23392	-0.16312	-0.023651	-0.007935	0.012817	-0.002747	0.21194	0.025482	0.58334	0.016174	0.002441	-0.023193
20.054	0.001831	0.095825	-0.13245	0.013275	-0.015564	0.00351	-0.004883	0.018158	0.17792	0.005035	0.12863	-0.005646	0.010681	-0.13489	0.16632	-0.009003	0.012817	0.073242	0.31815	-0.024872	-0.2919	-0.28076	0.002594	0.007324	0.010529	0.049744	0.23407	-0.020447	0.17212	0.016174	0.003204	-0.016327
20.055	-0.000763	0.10559	-0.092773	0.028992	-0.015564	-0.019379	0.001373	0.020905	0.18051	0.007629	0.065765	0.001831	0.010681	-0.040436	0.289	0.019836	0.016785	0.068054	0.23789	-0.001831	-0.11581	-0.17441	-0.12009	0.067596	-0.001221	0.069733	0.16296	-0.029449	-0.10788	0.17059	-0.00061	-0.023193
20.056	0.019836	0.081329	-0.047302	0.018311	-0.012207	-0.025024	-0.00473	0.030975	0.1976	-0.029907	-0.016937	-0.009613	0.032349	0.074463	0.17197	0.013733	0.038452	0.094604	-0.04715	0.032654	0.079498	-0.1947	-0.047913	0.064392	0.049438	-0.002289	0.3038	-0.044403	-0.26077	0.47455	0.001068	-0.020142
20.057	-0.008087	0.059509	-0.059357	-0.016022	-0.016022	-0.021973	0.002747	0.014496	0.1915	-0.021667	-0.030365	-0.004425	0.02533	0.014191	0.095978	0.013123	0.045624	0.12421	-0.12177	0.050354	0.14481	-0.086212	0.068512	-0.023346	0.11673	-0.010223	0.37903	-0.030365	-0.1831	0.57495	-0.00412	-0.012817
20.058	0.019379	0.06485	-0.091705	0.000763	-0.016022	-0.010529	-0.005493	0.023956	0.21378	-0.088654	-0.0354	-0.001831	0.015869	0.017853	0.031281	0.019684	0.009613	0.1004	0.052643	0.014648	0.017548	0.1297	0.28046	-0.062866	0.047913	-0.10361	0.039978	0.064545	0.079803	0.29633	0.000916	-0.005035
20.059	0.014648	0.063782	-0.098114	-0.005188	-0.008698	-0.011902	-0.000305	0.020447	0.21805	-0.082092	-0.009003	-0.007477	0.039978	0.026855	0.15366	0.013123	-0.028534	0.11398	0.25467	0.043488	-0.25223	0.13809	0.30304	-0.02594	0.04776	-0.10498	-0.19836	0.016174	0.3006	0.30472	-0.002289	-0.01236
20.06	-0.009918	0.066376	-0.088501	-0.015869	-0.00061	0	0.003815	0.017853	0.23025	-0.068512	-0.097046	-0.004578	0.042572	0.037079	-0.006409	0.005341	-0.038757	0.13351	0.27466	0.007629	-0.49072	0.12711	0.27939	0.051422	0.077667	-0.019684	-0.29282	-0.01358	0.2565	-0.005035	-0.000458	-0.008392
20.061	-0.002136	0.063934	-0.090485	-0.002289	-0.005798	0.029297	0.015106	0.020752	0.21133	-0.042725	-0.16083	-0.007324	0.083466	0.033417	0.15732	0.015564	-0.083008	0.10208	0.15564	-0.015106	-0.037079	0.13062	0.26993	0.055542	0.13199	0.11505	-0.19852	-0.023193	0.097961	0.058746	0.002289	-0.008545
20.062	0.00061	0.071106	-0.11276	0.014648	-0.018921	0.018616	0.007477	0.024414	0.21042	-0.020447	-0.09964	-0.008392	0.13641	0.037842	0.11826	0.019684	-0.060577	0.10223	0.1442	-0.028534	0.22919	0.10513	0.15091	-0.016785	0.1239	0.11139	-0.12146	-0.032349	-0.036163	0.094452	-0.000916	-0.005493
20.063	-0.011139	0.07019	-0.12344	0.017548	-0.007782	0.054626	-0.005035	0.019226	0.20126	0.018311	-0.040741	-0.006866	0.15152	0.068054	-0.15915	0.011444	-0.057678	0.19272	0.24826	-0.075989	0.31021	0.06134	-0.15305	-0.040283	0.16068	0.057373	0.014954	-0.032654	-0.13321	0.14633	0.006561	0.000916
20.064	0.001678	0.079651	-0.11139	0.014496	0.002136	0.056	-0.008087	0.022583	0.19272	0.038757	0.074005	-0.002594	0.089722	0.008698	-0.23422	0.012512	-0.048828	0.20218	0.29098	-0.16068	0.24735	0.071106	-0.3952	-0.021667	0.17303	0.033875	0.16357	-0.006866	-0.07782	0.20126	0.001831	0.004883
20.065	0.001678	0.048981	-0.06424	-0.012054	0.023346	0.066376	0.001221	0.02182	0.21942	0.023804	0.10208	-0.011749	0.054932	-0.005951	-0.10407	0.014191	-0.034943	0.093384	0.1181	-0.098877	0.10223	0.005188	-0.42313	0.031281	0.29266	0.036011	0.30228	0.034027	0.003815	0.054321	0	0.007629
20.066	0.014191	0.021667	-0.051727	-0.008087	0.001068	0.025024	-0.007782	0.018616	0.22415	0.017395	0.013428	-0.001221	0.050201	-0.061798	-0.079651	0.01297	-0.033875	0.028687	0.026398	0.007935	0.063934	0.007477	-0.39932	-0.043335	0.34103	0.018768	0.21698	-0.018768	0.034943	0.049744	-0.000305	-0.001373
20.067	0.016022	0.074615	-0.060425	-0.005341	-0.030212	-0.018463	-0.000916	0.025177	0.21515	0.031281	-0.06424	-0.005493	0.033569	-0.044861	-0.23651	0.000305	-0.007935	0.003204	0.063629	-0.007782	0.015259	-0.019684	-0.22751	-0.061493	0.43304	0	-0.08255	0.058746	0.017548	-0.22583	0.006714	0.001831
20.068	-0.016632	0.066071	-0.081635	0.008698	-0.023346	-0.027771	-0.001984	0.018005	0.21164	-0.027008	-0.078735	-0.006409	0.028992	-0.012817	-0.177	0.00061	0.023041	-0.017548	-0.1088	0.039063	-0.007172	-0.033112	0.11002	-0.013275	0.12253	0.005798	-0.4953	0.016632	0.005646	-0.36697	0.000305	-0.00351
20.069	0.018921	0.034485	-0.083618	0.001526	-0.017395	-0.021362	0.011139	0.025787	0.215	-0.077362	-0.036926	-0.001373	0.051422	0.004272	-0.047913	0.009766	0.032043	-0.014954	0.006256	0.051117	0.000763	-0.027771	0.24994	0.002136	-0.48843	0.003204	-0.36804	-0.013885	0.080261	-0.40207	0.001373	-0.012512
